HIERARCHY
ROOT Hips
{
	OFFSET -14.64140 90.27770 -84.91600
	CHANNELS 6 Xposition Yposition Zposition Zrotation Xrotation Yrotation
	JOINT Spine
	{
		OFFSET 0.00000 13.20850 -1.60436
		CHANNELS 3 Zrotation Xrotation Yrotation
		JOINT Spine1
		{
			OFFSET 0.00000 8.61716 0.00000
			CHANNELS 3 Zrotation Xrotation Yrotation
			JOINT Spine2
			{
				OFFSET 0.00000 8.61717 0.00000
				CHANNELS 3 Zrotation Xrotation Yrotation
				JOINT Spine3
				{
					OFFSET 0.00000 8.61717 0.00000
					CHANNELS 3 Zrotation Xrotation Yrotation
					JOINT Neck
					{
						OFFSET 0.00000 11.07920 1.10792
						CHANNELS 3 Zrotation Xrotation Yrotation
						JOINT Neck1
						{
							OFFSET 0.00000 7.08032 0.00000
							CHANNELS 3 Zrotation Xrotation Yrotation
							JOINT Head
							{
								OFFSET 0.00000 7.08031 0.00000
								CHANNELS 3 Zrotation Xrotation Yrotation
								End site
								{
									OFFSET 0.00000 0.00000 0.00000
								}
							}
						}
					}
					JOINT RightShoulder
					{
						OFFSET -0.01000 7.91373 5.19711
						CHANNELS 3 Zrotation Xrotation Yrotation
						JOINT RightArm
						{
							OFFSET -18.41580 0.00000 0.00000
							CHANNELS 3 Zrotation Xrotation Yrotation
							JOINT RightForeArm
							{
								OFFSET -29.11090 0.00000 0.00000
								CHANNELS 3 Zrotation Xrotation Yrotation
								JOINT RightHand
								{
									OFFSET -24.65040 0.00000 0.00000
									CHANNELS 3 Zrotation Xrotation Yrotation
									JOINT RightHandThumb1
									{
										OFFSET -5.35114 -0.85590 3.97906
										CHANNELS 3 Zrotation Xrotation Yrotation
										JOINT RightHandThumb2
										{
											OFFSET -4.52789 0.00000 0.00000
											CHANNELS 3 Zrotation Xrotation Yrotation
											JOINT RightHandThumb3
											{
												OFFSET -2.46976 0.00000 0.00000
												CHANNELS 3 Zrotation Xrotation Yrotation
												End site
												{
													OFFSET 0.00000 0.00000 0.00000
												}
											}
										}
									}
									JOINT RightHandIndex1
									{
										OFFSET -14.26970 0.00000 2.88139
										CHANNELS 3 Zrotation Xrotation Yrotation
										JOINT RightHandIndex2
										{
											OFFSET -5.48836 0.00000 0.00000
											CHANNELS 3 Zrotation Xrotation Yrotation
											JOINT RightHandIndex3
											{
												OFFSET -3.01859 0.00000 0.00000
												CHANNELS 3 Zrotation Xrotation Yrotation
												End site
												{
													OFFSET 0.00000 0.00000 0.00000
												}
											}
										}
									}
									JOINT RightHandMiddle1
									{
										OFFSET -14.26970 0.00000 -0.09147
										CHANNELS 3 Zrotation Xrotation Yrotation
										JOINT RightHandMiddle2
										{
											OFFSET -6.17441 0.00000 0.00000
											CHANNELS 3 Zrotation Xrotation Yrotation
											JOINT RightHandMiddle3
											{
												OFFSET -3.56743 0.00000 0.00000
												CHANNELS 3 Zrotation Xrotation Yrotation
												End site
												{
													OFFSET 0.00000 0.00000 0.00000
												}
											}
										}
									}
									JOINT RightHandRing1
									{
										OFFSET -12.69180 0.00000 -3.06433
										CHANNELS 3 Zrotation Xrotation Yrotation
										JOINT RightHandRing2
										{
											OFFSET -5.62556 0.00000 0.00000
											CHANNELS 3 Zrotation Xrotation Yrotation
											JOINT RightHandRing3
											{
												OFFSET -3.56744 0.00000 0.00000
												CHANNELS 3 Zrotation Xrotation Yrotation
												End site
												{
													OFFSET 0.00000 0.00000 0.00000
												}
											}
										}
									}
									JOINT RightHandPinky1
									{
										OFFSET -11.11390 0.00000 -6.03719
										CHANNELS 3 Zrotation Xrotation Yrotation
										JOINT RightHandPinky2
										{
											OFFSET -4.52789 0.00000 0.00000
											CHANNELS 3 Zrotation Xrotation Yrotation
											JOINT RightHandPinky3
											{
												OFFSET -2.46976 0.00000 0.00000
												CHANNELS 3 Zrotation Xrotation Yrotation
												End site
												{
													OFFSET 0.00000 0.00000 0.00000
												}
											}
										}
									}
								}
							}
						}
					}
					JOINT LeftShoulder
					{
						OFFSET 0.01000 7.91373 5.19711
						CHANNELS 3 Zrotation Xrotation Yrotation
						JOINT LeftArm
						{
							OFFSET 18.41580 0.00000 0.00000
							CHANNELS 3 Zrotation Xrotation Yrotation
							JOINT LeftForeArm
							{
								OFFSET 29.11090 0.00000 0.00000
								CHANNELS 3 Zrotation Xrotation Yrotation
								JOINT LeftHand
								{
									OFFSET 24.65040 0.00000 0.00000
									CHANNELS 3 Zrotation Xrotation Yrotation
									JOINT LeftHandThumb1
									{
										OFFSET 5.35114 -0.85590 3.97906
										CHANNELS 3 Zrotation Xrotation Yrotation
										JOINT LeftHandThumb2
										{
											OFFSET 4.52789 0.00000 0.00000
											CHANNELS 3 Zrotation Xrotation Yrotation
											JOINT LeftHandThumb3
											{
												OFFSET 2.46977 0.00000 0.00000
												CHANNELS 3 Zrotation Xrotation Yrotation
												End site
												{
													OFFSET 0.00000 0.00000 0.00000
												}
											}
										}
									}
									JOINT LeftHandIndex1
									{
										OFFSET 14.26970 0.00000 2.88139
										CHANNELS 3 Zrotation Xrotation Yrotation
										JOINT LeftHandIndex2
										{
											OFFSET 5.48836 0.00000 0.00000
											CHANNELS 3 Zrotation Xrotation Yrotation
											JOINT LeftHandIndex3
											{
												OFFSET 3.01859 0.00000 0.00000
												CHANNELS 3 Zrotation Xrotation Yrotation
												End site
												{
													OFFSET 0.00000 0.00000 0.00000
												}
											}
										}
									}
									JOINT LeftHandMiddle1
									{
										OFFSET 14.26970 0.00000 -0.09147
										CHANNELS 3 Zrotation Xrotation Yrotation
										JOINT LeftHandMiddle2
										{
											OFFSET 6.17440 0.00000 0.00000
											CHANNELS 3 Zrotation Xrotation Yrotation
											JOINT LeftHandMiddle3
											{
												OFFSET 3.56744 0.00000 0.00000
												CHANNELS 3 Zrotation Xrotation Yrotation
												End site
												{
													OFFSET 0.00000 0.00000 0.00000
												}
											}
										}
									}
									JOINT LeftHandRing1
									{
										OFFSET 12.69180 0.00000 -3.06433
										CHANNELS 3 Zrotation Xrotation Yrotation
										JOINT LeftHandRing2
										{
											OFFSET 5.62556 0.00000 0.00000
											CHANNELS 3 Zrotation Xrotation Yrotation
											JOINT LeftHandRing3
											{
												OFFSET 3.56744 0.00000 0.00000
												CHANNELS 3 Zrotation Xrotation Yrotation
												End site
												{
													OFFSET 0.00000 0.00000 0.00000
												}
											}
										}
									}
									JOINT LeftHandPinky1
									{
										OFFSET 11.11390 0.00000 -6.03719
										CHANNELS 3 Zrotation Xrotation Yrotation
										JOINT LeftHandPinky2
										{
											OFFSET 4.52789 0.00000 0.00000
											CHANNELS 3 Zrotation Xrotation Yrotation
											JOINT LeftHandPinky3
											{
												OFFSET 2.46976 0.00000 0.00000
												CHANNELS 3 Zrotation Xrotation Yrotation
												End site
												{
													OFFSET 0.00000 0.00000 0.00000
												}
											}
										}
									}
								}
							}
						}
					}
					JOINT pCube4
					{
						OFFSET 0.00000 10.91090 1.10792
						CHANNELS 3 Zrotation Xrotation Yrotation
						End site
						{
							OFFSET 0.00000 0.00000 0.00000
						}
					}
				}
			}
		}
	}
	JOINT RightUpLeg
	{
		OFFSET -9.98441 0.00000 0.00000
		CHANNELS 3 Zrotation Xrotation Yrotation
		JOINT RightLeg
		{
			OFFSET 0.00000 -42.11790 0.00000
			CHANNELS 3 Zrotation Xrotation Yrotation
			JOINT RightFoot
			{
				OFFSET 0.00000 -45.00020 -0.00001
				CHANNELS 3 Zrotation Xrotation Yrotation
				JOINT RightForeFoot
				{
					OFFSET 0.00000 -3.74820 0.00000
					CHANNELS 3 Zrotation Xrotation Yrotation
					JOINT RightToeBase
					{
						OFFSET 0.00000 0.06325 14.43120
						CHANNELS 3 Zrotation Xrotation Yrotation
						End site
						{
							OFFSET 0.00000 0.00000 0.00000
						}
					}
				}
			}
		}
	}
	JOINT LeftUpLeg
	{
		OFFSET 9.98441 0.00000 0.00000
		CHANNELS 3 Zrotation Xrotation Yrotation
		JOINT LeftLeg
		{
			OFFSET 0.00000 -42.11800 0.00000
			CHANNELS 3 Zrotation Xrotation Yrotation
			JOINT LeftFoot
			{
				OFFSET 0.00000 -45.00070 0.00000
				CHANNELS 3 Zrotation Xrotation Yrotation
				JOINT LeftForeFoot
				{
					OFFSET 0.00000 -3.74824 0.00000
					CHANNELS 3 Zrotation Xrotation Yrotation
					JOINT LeftToeBase
					{
						OFFSET 0.00000 0.06325 14.43110
						CHANNELS 3 Zrotation Xrotation Yrotation
						End site
						{
							OFFSET 0.00000 0.00000 0.00000
						}
					}
				}
			}
		}
	}
}
MOTION
Frames: 4
Frame Time: 0.050000
-0.018480585981373056 -0.010950846913348739 0.046888908007873716 0.023300283603736746 0.0005543991114356281 0.025603489175151258 -3.3316320176079715 1.546473620619038 -0.724240191859694 -1.0006821513702115 3.586571890607925 0.3839153148949037 -1.2615038464262847 -2.4254656304197053 -2.0381068332086194 -1.1778203864012382 -0.05871219880063645 -0.9480285487800948 -0.8600676694397922 15.720538059336109 2.048791970228738 0.24572236304359488 1.195664474413467 4.39376766909631 -0.4547827562111601 -13.688398890883066 0.38202970891476257 -11.721563469033983 4.027889296298413 -11.345815976266715 66.248544731654 -11.224895673750776 46.24927952184524 24.420963723354994 -2.8491505515995543 97.63061298473728 10.45312163866279 -0.3909230417536971 -0.3548211508020451 4.529794992901313 -0.1336719596729259 -1.5484743323205823 -0.024530948405926963 -0.045621628355363764 -56.188225764403555 0.02314035153380157 -0.025666091070337474 -56.24649637258267 -38.798444658196395 -0.01934204114744026 0.0008682854309176617 0.009081962324862232 -0.04484871813553836 -0.0040188890135756895 -0.009731382278786374 0.02678397344476302 0.03322604181048185 -36.71215862359247 -0.021520758522973103 -0.01233334460523515 0.02125096755424664 0.031820840222244615 0.03850336611619739 0.024985275212027168 -0.013135599803296974 -0.015798141068889073 -19.750996768201237 -0.010041541010854502 -0.002752877301262 0.018314145210631808 0.018348756057731303 0.007108759052588614 -0.036322648095885764 -0.0016145757019031084 -0.027049888975231064 24.010348255273396 0.003037256675712999 -0.020847175555316136 28.82008410972146 -0.00988407156726222 -0.019229905171881705 28.885942229705712 0.0014675100711180331 -0.01799366940892537 14.724988483854888 3.372473714009596 9.833397352091087 -62.7742768708539 5.223563213810807 -51.24754846075454 -53.518382216903554 0.8944042137862509 -94.42322725396329 -5.872277263729208 0.4553873096366449 -0.920042349534998 -0.5167733773032397 0.041990649966494153 -8.159682058322499 -0.010487889199516806 -0.03765074053137356 44.57178362524053 0.031225781627284805 0.018209181955249534 44.57984150265406 12.434734616254238 -0.008695935223885329 -0.011614113536868049 -0.043121597852299645 -0.008126072327346455 0.048846872587673694 -0.008000346931649298 -0.029070976470255618 0.03275259470678831 11.113503105710581 -0.028270236561270472 -0.044805265709059086 0.0008568052472222197 -0.017429568935782694 0.03945862995555804 0.008285491302725325 -0.0029979897705468177 -0.006770521388765744 4.744179815900341 0.001123949006189014 0.026003976496033483 -0.019998325143426143 0.004944810858256401 0.0012488249423814534 0.026349533642391534 0.016522487868030757 0.03343035329494832 -5.637298319772308 -0.017384866280851424 -0.0069235908345425985 -6.6920071272506165 0.019080916876396323 0.0015034248430116246 -6.690053245109137 -0.04335835104167805 -0.00873917043500367 -0.005335233079394398 0.020695512959810553 -0.0033629838822868386 8.033957244415955 3.5348976418672273 -19.22227514335967 0.006442914009834787 10.364741019426871 -0.016428865034136094 -5.631039820970037 -15.654752709876755 3.1661839017673405 -0.03533768121202552 0.01705112756317155 -0.030657289258127166 -0.01991016921007612 4.692765353705886 -0.022108388358856004 12.45482160103144 -8.27638551166523 6.898832364167953 0.036616242074814336 46.35931192034492 0.044037941370936126 -4.33249473542782 -14.731718861370798 -3.8182967936532712 0.037114342849654765 -0.002349465678297299 -0.006397771209057343 -0.04741213090058628 -10.703017975314092 0.03885606761401375 
-0.04235628786278304 0.010440850046452567 -0.04427367652590915 -0.027100584255806272 0.045601523508818666 0.015071066125579173 -3.3771660345312786 1.3983715099918859 -0.7143761015509215 -1.0671668424096135 3.512277924263939 0.3777527779389143 -1.2487450979379602 -2.3789309131635994 -2.095216842264501 -1.2525084284627948 -0.10378088184268368 -0.8943320318426362 -0.9522302036978272 15.727282446670507 2.3785915249944005 0.2816153362205751 1.2684472914679796 5.135566293069542 -0.6114207612120267 -13.396391805299281 0.4090826665547143 -11.72967708615671 3.987031800612463 -11.4037440223024 65.66241902148941 -10.673237859575252 45.07513670824436 20.946327346831907 -3.2217373643476095 97.87994861862686 10.132868506878875 -0.38098998198736017 -0.5586735443842454 4.496671427906623 -0.126918706309889 -1.5577239207377271 0.03750251352569244 0.017069488712554735 -56.20265787840805 -0.02771936174185936 0.0025952950729165023 -56.20467938168462 -38.723120402719466 -0.034248203494165214 0.03557750106494295 0.027587693999710897 -0.011687808050430395 0.0321757302407732 -0.045780232968041804 0.01032406295801663 0.02123937331787319 -36.67119109106175 -0.010892891406418071 -0.0022184968748657657 -0.0068953245382188146 -0.0195840215288607 0.045885190745350385 -0.003930398306962203 -0.03444167593417502 0.024954117056580485 -19.7594693064157 0.039828519783986466 0.005340540591838917 0.03114173064675191 -0.013302439108476678 -0.03669397643475952 -0.012237386296532085 0.010625032590541206 0.03585536706757013 24.01623609756462 -0.01877502852031711 0.023653685329640878 28.82070523310168 0.01361752095023375 -0.02556473977924349 28.88367767356036 -0.0031311502813705272 -0.010349059330751038 14.751198089193563 3.3096066181393353 9.834964956481892 -62.658152963771364 5.767497814142059 -50.703808449661516 -54.12941754656608 1.3198779193086811 -93.50451400452685 -6.092052527696209 0.06390818365663693 -0.5083544452114868 -0.4570599702601417 0.11191485223925057 -8.112745847774608 0.02175554213740163 -0.005715062411024169 44.52297152610085 0.04191111538585781 0.022544006833057136 44.54027568676954 12.495636802925606 0.020013046622325507 -0.029832326870452022 0.00902281301760641 0.016400275619190375 -0.04290731862322188 -0.026164309523878018 -0.02579550003493327 -0.009814818630805468 11.104106668037419 0.023001048533271666 0.01531961072955605 -0.04363202281790948 -0.012493081085823778 0.010719780404925626 -0.03153387681568453 -0.0009794626557614414 -0.03951736801804282 4.754172915557774 0.01155772409433636 -0.028235304103506022 0.007936058879229053 -0.03409782576196016 -0.031634667675957906 0.00444798640026116 -0.02053964751473221 0.011128517321102671 -5.646503525940181 -0.034016868094269195 0.04706525700501314 -6.755987785041264 -0.03576074753446718 0.02707834799812077 -6.727736800373174 -0.03232370966031044 -0.042869376912826086 -0.025309507831494583 -0.046517269517450804 -0.006728337216724444 8.07137055147016 3.474288093468567 -19.201873065112242 0.04025889324443123 10.362339540557167 0.051578849644393854 -5.640991768349641 -15.656949104425461 3.18359843346649 0.002761756221807279 0.019738458867850684 -0.03701722607606925 0.024837079777325223 4.721178988814464 -0.0259982665271554 12.452929107714798 -8.191496108325524 6.875305381857351 -0.031245523399816497 46.41056074044057 -0.011690720053032866 -4.286319561263827 -14.787363848942812 -3.816863179036059 0.03911994736041191 -0.03411164606759799 0.026523219183087955 0.016783974451824786 -10.766505813389823 -0.0444193827151378 
0.015288124531382992 0.010661167571407861 -0.017779544424230846 -0.049728065285866596 0.035400642645034175 0.01774516355774303 -3.46239997386992 1.301148579313279 -0.706911919990952 -1.0280135254175633 3.5290128992188414 0.3757735387751752 -1.2784219964428134 -2.3576611261413616 -2.176902462133924 -1.2862576815936249 -0.0556321322859092 -0.936544864782395 -0.9722550411432951 15.733709100951192 2.605403768515092 0.28852594692170996 1.417678054022177 5.842029053534093 -0.6101635397784082 -13.188655203856346 0.5040227803457352 -11.51669598627751 3.9349184983601537 -11.55525512107002 65.05673095003462 -9.728267260362498 43.235403606914446 17.44111651481685 -3.613825519641576 98.11377949732515 9.891949128419387 -0.40331479314619206 -0.7148099559857652 4.5149710136305785 -0.15501667491086524 -1.6013577420651535 0.01943213982206745 -0.046627973014290364 -56.25256446381108 0.011159769829493271 -0.028392187795972235 -56.226167027251286 -38.76032468450316 0.03721868910472118 -0.0018433966676602738 0.015177433969275983 -0.021003818442273173 0.030486089896675082 -0.02421991593947266 0.030488446711628658 -0.037994566253405776 -36.657386032517266 0.04191045147559219 0.04882549580650306 0.02174918986691771 0.04230035240052887 0.009118211639220873 -0.01724690440430069 0.009725287965570975 0.006204342529065201 -19.756670057003056 -0.02839649148866881 0.003501915567539407 0.027930988879232458 0.025522016002368385 -0.04574773726260428 0.02179744931017515 0.023471026986556214 -0.00352306532971913 24.06444593020116 -0.024882034066484388 0.021902686376081077 28.89339076809169 -0.03031263411418102 0.03825893239234497 28.88551809330306 -0.04392714448313641 -0.046595813472454936 14.6242228568052 3.2971728423244935 9.945053033422651 -62.58796315023066 6.4519128050583765 -49.72151138742798 -56.18062379640267 2.3767852074609856 -92.42086026687832 -5.946529151769321 -0.38913187242525066 0.05743222754855092 -0.47713856306954494 0.0834954038735887 -8.1324251409775 0.016382011602992012 -0.034875740594929504 44.551034209245785 0.013812619139495608 -0.031835207468721406 44.56724571943716 12.437637099956232 -0.0012506772509994419 -0.014086502963330859 -0.04135779116435973 0.04280823175108546 -0.004154688204453587 -0.04967375090861824 0.0011078486488018137 -0.03487146315131038 11.117977901579371 0.016573448393368117 -0.0013075685245821126 -0.04348688858858245 0.042440882952436934 -0.0018594190000215298 0.010226890362169777 -0.047027530253841314 -0.027321275142233314 4.735503839878053 -0.005766890209480943 -0.008941881357659028 -0.03598447959629271 0.004342673634957343 -0.04172175867459823 0.018979094254792158 0.04164743741262485 0.04885301558351547 -5.578663547302172 0.045330629416725846 0.017139363777473306 -6.7591632656258644 -0.0006301132528386481 0.021918600643149388 -6.759328393976355 -0.001231865541331172 0.03556811182922407 -0.015466131929344077 -0.03712136650913335 -0.007271595565783262 8.017889839289355 3.478180141381438 -19.249730301730388 -0.04405174353706666 10.405000264211715 -0.015387337771742345 -5.584286576982982 -15.681697493362725 3.190624006854592 -0.02442340534174951 -0.023118183821871727 -0.023672779306329557 0.048142087752045 4.683557863074722 0.0038463427880531262 12.470244513447225 -8.269265300642369 6.907856611409172 0.04694967182890693 46.3833408446052 -0.02174740728615165 -4.336166593303204 -14.72164970393087 -3.828777094063725 0.03944745955846853 -0.024314230610571863 0.011963989586494743 -0.02191391603092671 -10.761786273426061 -0.04304795617680791 
0.03763106025794188 -0.03616455500083788 -0.0333563694193273 0.012466880949592444 -0.017525978613781742 -0.006285400798424866 -3.57575897229373 1.1663733752903658 -0.6913661849369112 -1.0420665202653634 3.584084296205869 0.41028389730101544 -1.3418612263843557 -2.399624129521736 -2.2213032253250695 -1.3041164119301811 -0.033431267426640196 -0.8826854192359884 -0.9553433978651347 15.67574919375316 2.7724501012580824 0.2591018083426586 1.5194895413358178 6.356135770215003 -0.7504767781880849 -12.900830147022559 0.5300008798435681 -11.375017298576761 3.8414513672421964 -11.685568345944532 64.06882179701347 -9.141392911634107 41.3832719486759 14.39174699920539 -3.96128517942057 98.66513138037419 9.696203256228621 -0.3968765079174181 -0.7717380744020415 4.508110758597869 -0.09227324092380261 -1.5458241269640307 0.014912970428298053 -0.005634150794060809 -56.228162987535725 -0.021123606476353588 0.020380923592623407 -56.28045258316469 -38.75692384389199 -0.04457692361019299 -0.03700981722252322 -0.004177435091186421 0.002410141661539392 0.0337899494419557 -0.04077084401924712 -0.015421707690559412 -0.04624826194200332 -36.65666389673147 0.0023215916457649142 0.010675980917022971 -0.04153699315696129 0.03042100548164483 0.009240473236311365 0.016625570945537373 0.0044189471162253335 -0.012369577473627715 -19.72862515641595 0.049162715707800925 -0.01154669093328962 0.0330711576380673 -0.04381928431029038 0.0024239307877376172 0.013959027183500675 0.030926798267691943 -0.013942192445058526 24.020256824787857 0.015000548792843281 0.03527093095433069 28.824369097611005 -0.03928584135989919 -0.002031577856695062 28.89136203228258 -0.027936385525480726 0.03424838460682317 14.446620959954684 3.304981332444536 9.999660039277485 -62.405855722946136 7.072883097306646 -48.47323821701963 -58.616686084770194 3.6944591962507034 -91.70752869302311 -5.61244263961115 -0.5579558441812784 0.4339100079848973 -0.509372654844096 0.05745130122466689 -8.103787077003904 0.018315532234932565 0.019692261779186024 44.59161426062957 0.011584460643590843 0.032427958510635194 44.57586539963265 12.434676005993744 0.007823841057187798 0.02174221016556009 0.01814425356498019 -0.03704781837323189 0.04228021796681043 -0.017832512066736063 -0.015285546752567497 0.023580527199479277 11.062366543827693 -0.02759930702328801 -0.007908880923308863 -0.03982068504196444 -0.013190042188924094 0.0421330754322646 -0.048757983371440515 0.04436339968318075 -0.04582784317050411 4.797322867376546 0.016382094389529697 0.010123903429993367 -0.03076862551840788 0.02064658816484077 -0.005633673766366595 -0.002187959037170983 -0.03804100709347372 0.024902487582059086 -5.630183939710098 -0.009056125291018145 -0.0007683019260607135 -6.695076502381324 0.002540738993356975 -0.03200292712046486 -6.729272204384352 -0.03589261138184498 0.03136586669108539 0.0476024510829706 0.010692945559336729 -0.01210665001605004 7.995954703961611 3.5129764632877425 -19.26607568068882 -0.0052570580615377335 10.40116997142597 -0.013015568050908928 -5.63433019893384 -15.692141415476724 3.1577965542526396 0.008066908711594923 0.01208987393953281 0.016615688584831426 0.004647266531588679 4.691815165939924 0.040876666455227244 12.484594456442634 -8.259603485015528 6.839704625143669 0.026410206789912027 46.35107957711004 -0.03183748065475908 -4.296277840066483 -14.701685715796302 -3.844193681613466 0.0018506178969963701 -0.025267303213029637 -0.002074879083453164 -0.008925693814830077 -10.773632095298048 -0.04721488641713771 
